<svg xmlns="http://www.w3.org/2000/svg" xmlns:xlink="http://www.w3.org/1999/xlink" width="250" height="59.191" viewBox="0 0 250 59.191">
  <defs>
    <linearGradient id="linear-gradient" y1="0.708" x2="1" y2="0.716" gradientUnits="objectBoundingBox">
      <stop offset="0" stop-color="#f59e3d"/>
      <stop offset="1" stop-color="#ed3059"/>
    </linearGradient>
    <clipPath id="clip-path">
      <path id="Caminho_32" data-name="Caminho 32" d="M1,0H251V59.191H1ZM1,0" transform="translate(-1)" fill="url(#linear-gradient)"/>
    </clipPath>
    <clipPath id="clip-path-2">
      <path id="Caminho_31" data-name="Caminho 31" d="M63.616,38.812c0,6.4,1.972,12.264,6.378,16.156a18.4,18.4,0,0,0,16.376,3.937,15.865,15.865,0,0,0,5.011-2.032A12.7,12.7,0,0,0,94.222,54.4c.322-.414.541-.678.848-1.03,0,1.045,0,2.091-.006,3.136s.16,1.871,1.415,1.871h6.1a1.414,1.414,0,0,0,1.409-1.408V38.812c0-6.5-2.372-12.544-7.555-16.389a20.1,20.1,0,0,0-10.912-3.642c-4.458,0-6.675.033-10.8,1.879C67.659,23.829,63.616,31.114,63.616,38.812Zm75.9-27.541a5.409,5.409,0,0,0,.626-10.8c-1.914,0-2.989.132-4.5,1.757C132.576,5.519,134.948,11.271,139.512,11.271Zm-4.381,10.641v34.74c0,.977.448,1.721,1.408,1.721h6.26c.96,0,1.408-.745,1.408-1.721V21.6a1.5,1.5,0,0,0-1.721-1.721h-5.633C135.481,19.877,135.131,20.552,135.131,21.912ZM21.524,19.094c-1.082-.674-5.371-.39-6.4-.29C7.449,19.556,1.891,24.958.752,32.754c-.089.607-.156,3.171-.2,6.432V56.925a3.747,3.747,0,0,0,.036.473c.281,1.067,1.432.82,2.78.819q1.721,0,3.443,0c1.358,0,2.346.222,2.608-.992.184-.858.064-18.759.051-21.23-.022-4.2,1.6-7.557,5.755-8.486a11.523,11.523,0,0,1,6.3.349c3.2.756,4.691,4.914,4.7,8.289l-.006,19.41c0,3.045-.3,2.976,6.892,2.823,2.979-.063,2.028-2.172,2.028-7.831V37.56c0-3.514.248-7.535,3.7-9.29,2.96-1.5,7.993-1.4,10.268.644,2.782,2.494,2.777,5.149,2.777,10.211V55.243c0,1.176-.22,2.319.477,2.809.942.662,4.662.321,6.258.327,2.809.011,2.184-1.528,2.184-4.231,0-3.155.144-17.693-.008-19.553-.635-7.813-4.57-12.879-11-14.975-4.992-1.626-11.364-1.194-15.812,1.758a7.018,7.018,0,0,0-.912.653c-.368.325-.592.471-.943.779-.566.5-1.014,1.387-1.525,1.761C29.307,22.135,24.18,19.155,21.524,19.094Zm86.69,16.119V56.964a1.414,1.414,0,0,0,1.408,1.408h5.946c2.1,0,1.565-1.741,1.565-5.32l.32-20.336a5.753,5.753,0,0,1,2.836-4.049c2.137-1.358,6.19-1.152,8.807-.722s2.184-.093,2.862-3.57c.758-3.882,1.181-4.162-2.629-4.958a23.47,23.47,0,0,0-12.258.711C111.078,22.2,108.215,28.154,108.215,35.213ZM226.364,21.442V43.976a19.706,19.706,0,0,0,1.046,6.308,13.043,13.043,0,0,0,1.924,3.709c2.49,3.456,7.237,5.475,11.427,5.475h.839c2.686-.008,9.02-.144,9.02-1.878a30.972,30.972,0,0,0-1.131-6.694c-.826-1.244-2.8-.035-6.067-.035-9.779,0-7.981-7.787-7.981-14.084V21.912c0-1.126-.292-2.034-1.408-2.034h-6.1C226.81,19.877,226.364,20.323,226.364,21.442Zm-77.775,9.7c0,4.246,1.239,7.047,4.37,8.93,6.623,3.982,17.427,2.208,18.723,6.007,1.782,5.223-10.246,7.043-13.975,2.39-1.371-1.712-.662-1.791-3.642-1.052-.631.156-1.248.311-1.878.469s-3.13.533-3.13,1.565a10.049,10.049,0,0,0,1.687,4.259c2.547,3.793,7.858,5.756,12.24,5.756h2.8a18,18,0,0,0,5.947-.958c4.676-1.575,8.938-4.859,8.938-10.779,0-3.354-.279-5.665-2.776-8.177a13.608,13.608,0,0,0-6.174-3.215c-3.687-1-8.642-1.216-11.808-2.276-2.477-.83-2.4-1.924-2.4-3.388,0-1.144,1.126-2.091,2.113-2.582,2.071-1.032,4.011-.861,6.338-.861,5.692,0,5.862,3.782,7.4,4.01A41.046,41.046,0,0,0,177.85,30.2c2.193-.522,2.7-.728,1.86-2.951a12.281,12.281,0,0,0-2.122-3.512,11.809,11.809,0,0,0-3.127-2.663C165.7,16.253,148.589,18.532,148.589,31.144Zm34.584,7.981a22.76,22.76,0,0,0,2.869,11.527,18.584,18.584,0,0,0,3.21,3.988,18.677,18.677,0,0,0,4.426,2.93c4.088,1.657,5.477,1.875,8.642,1.9h2.6a20.988,20.988,0,0,0,7.714-1.832c12.282-5.279,13.847-24.583,5.157-33.26-7.533-7.524-21.674-7.478-29.184,0C185.373,27.6,183.173,32.723,183.173,39.125Zm24.949-10.981a8.757,8.757,0,0,1,2.859,1.6c5.333,4.37,5.771,17.1-2.859,20.621a8.506,8.506,0,0,1-2.6.762,18.187,18.187,0,0,1-3.344.177,10.144,10.144,0,0,1-2.285-.435,13.828,13.828,0,0,1-2.123-.817c-.244-.214-.689-.405-.993-.623s-.724-.557-1.05-.831a6.112,6.112,0,0,1-1.453-1.99c-1.9-1.7-2.1-7.923-1.61-10.53a10.978,10.978,0,0,1,3.378-6.012c.772-.653,1.437-.866,1.754-1.3.724-.136,1.348-.562,2.133-.784a12.078,12.078,0,0,1,2.248-.467c.844,0,.886-.193,1.63-.153.526.028.842.121,1.574.157A10.825,10.825,0,0,1,208.122,28.144Zm-120.015,0a8.755,8.755,0,0,1,2.86,1.6c5.332,4.37,5.771,17.1-2.86,20.621a8.5,8.5,0,0,1-2.6.762,18.2,18.2,0,0,1-3.344.177,10.138,10.138,0,0,1-2.284-.435,13.818,13.818,0,0,1-2.123-.817c-.244-.214-.69-.405-.994-.623s-.724-.557-1.05-.831a6.121,6.121,0,0,1-1.452-1.99c-1.9-1.7-2.1-7.923-1.61-10.53a10.97,10.97,0,0,1,3.377-6.012c.773-.653,1.438-.866,1.755-1.3.724-.136,1.349-.562,2.134-.784a12.08,12.08,0,0,1,2.248-.467c.844,0,.886-.193,1.63-.153.527.028.842.121,1.574.157A10.82,10.82,0,0,1,88.107,28.144Zm0,0" transform="translate(-0.551 -0.473)" fill="url(#linear-gradient)"/>
    </clipPath>
    <clipPath id="clip-path-3">
      <path id="Caminho_30" data-name="Caminho 30" d="M63.616,38.812c0,6.4,1.972,12.264,6.378,16.156a18.4,18.4,0,0,0,16.376,3.937,15.865,15.865,0,0,0,5.011-2.032A12.7,12.7,0,0,0,94.222,54.4c.322-.414.541-.678.848-1.03,0,1.045,0,2.091-.006,3.136s.16,1.871,1.415,1.871h6.1a1.414,1.414,0,0,0,1.409-1.408V38.812c0-6.5-2.372-12.544-7.555-16.389a20.1,20.1,0,0,0-10.912-3.642c-4.458,0-6.675.033-10.8,1.879C67.659,23.829,63.616,31.114,63.616,38.812Zm75.9-27.541a5.409,5.409,0,0,0,.626-10.8c-1.914,0-2.989.132-4.5,1.757C132.576,5.519,134.948,11.271,139.512,11.271Zm-4.381,10.641v34.74c0,.977.448,1.721,1.408,1.721h6.26c.96,0,1.408-.745,1.408-1.721V21.6a1.5,1.5,0,0,0-1.721-1.721h-5.633C135.481,19.877,135.131,20.552,135.131,21.912ZM21.524,19.094c-1.082-.674-5.371-.39-6.4-.29C7.449,19.556,1.891,24.958.752,32.754c-.089.607-.156,3.171-.2,6.432V56.925a3.747,3.747,0,0,0,.036.473c.281,1.067,1.432.82,2.78.819q1.721,0,3.443,0c1.358,0,2.346.222,2.608-.992.184-.858.064-18.759.051-21.23-.022-4.2,1.6-7.557,5.755-8.486a11.523,11.523,0,0,1,6.3.349c3.2.756,4.691,4.914,4.7,8.289l-.006,19.41c0,3.045-.3,2.976,6.892,2.823,2.979-.063,2.028-2.172,2.028-7.831V37.56c0-3.514.248-7.535,3.7-9.29,2.96-1.5,7.993-1.4,10.268.644,2.782,2.494,2.777,5.149,2.777,10.211V55.243c0,1.176-.22,2.319.477,2.809.942.662,4.662.321,6.258.327,2.809.011,2.184-1.528,2.184-4.231,0-3.155.144-17.693-.008-19.553-.635-7.813-4.57-12.879-11-14.975-4.992-1.626-11.364-1.194-15.812,1.758a7.018,7.018,0,0,0-.912.653c-.368.325-.592.471-.943.779-.566.5-1.014,1.387-1.525,1.761C29.307,22.135,24.18,19.155,21.524,19.094Zm86.69,16.119V56.964a1.414,1.414,0,0,0,1.408,1.408h5.946c2.1,0,1.565-1.741,1.565-5.32l.32-20.336a5.753,5.753,0,0,1,2.836-4.049c2.137-1.358,6.19-1.152,8.807-.722s2.184-.093,2.862-3.57c.758-3.882,1.181-4.162-2.629-4.958a23.47,23.47,0,0,0-12.258.711C111.078,22.2,108.215,28.154,108.215,35.213ZM226.364,21.442V43.976a19.706,19.706,0,0,0,1.046,6.308,13.043,13.043,0,0,0,1.924,3.709c2.49,3.456,7.237,5.475,11.427,5.475h.839c2.686-.008,9.02-.144,9.02-1.878a30.972,30.972,0,0,0-1.131-6.694c-.826-1.244-2.8-.035-6.067-.035-9.779,0-7.981-7.787-7.981-14.084V21.912c0-1.126-.292-2.034-1.408-2.034h-6.1C226.81,19.877,226.364,20.323,226.364,21.442Zm-77.775,9.7c0,4.246,1.239,7.047,4.37,8.93,6.623,3.982,17.427,2.208,18.723,6.007,1.782,5.223-10.246,7.043-13.975,2.39-1.371-1.712-.662-1.791-3.642-1.052-.631.156-1.248.311-1.878.469s-3.13.533-3.13,1.565a10.049,10.049,0,0,0,1.687,4.259c2.547,3.793,7.858,5.756,12.24,5.756h2.8a18,18,0,0,0,5.947-.958c4.676-1.575,8.938-4.859,8.938-10.779,0-3.354-.279-5.665-2.776-8.177a13.608,13.608,0,0,0-6.174-3.215c-3.687-1-8.642-1.216-11.808-2.276-2.477-.83-2.4-1.924-2.4-3.388,0-1.144,1.126-2.091,2.113-2.582,2.071-1.032,4.011-.861,6.338-.861,5.692,0,5.862,3.782,7.4,4.01A41.046,41.046,0,0,0,177.85,30.2c2.193-.522,2.7-.728,1.86-2.951a12.281,12.281,0,0,0-2.122-3.512,11.809,11.809,0,0,0-3.127-2.663C165.7,16.253,148.589,18.532,148.589,31.144Zm34.584,7.981a22.76,22.76,0,0,0,2.869,11.527,18.584,18.584,0,0,0,3.21,3.988,18.677,18.677,0,0,0,4.426,2.93c4.088,1.657,5.477,1.875,8.642,1.9h2.6a20.988,20.988,0,0,0,7.714-1.832c12.282-5.279,13.847-24.583,5.157-33.26-7.533-7.524-21.674-7.478-29.184,0C185.373,27.6,183.173,32.723,183.173,39.125Zm24.949-10.981a8.757,8.757,0,0,1,2.859,1.6c5.333,4.37,5.771,17.1-2.859,20.621a8.506,8.506,0,0,1-2.6.762,18.187,18.187,0,0,1-3.344.177,10.144,10.144,0,0,1-2.285-.435,13.828,13.828,0,0,1-2.123-.817c-.244-.214-.689-.405-.993-.623s-.724-.557-1.05-.831a6.112,6.112,0,0,1-1.453-1.99c-1.9-1.7-2.1-7.923-1.61-10.53a10.978,10.978,0,0,1,3.378-6.012c.772-.653,1.437-.866,1.754-1.3.724-.136,1.348-.562,2.133-.784a12.078,12.078,0,0,1,2.248-.467c.844,0,.886-.193,1.63-.153.526.028.842.121,1.574.157A10.825,10.825,0,0,1,208.122,28.144Zm-120.015,0a8.755,8.755,0,0,1,2.86,1.6c5.332,4.37,5.771,17.1-2.86,20.621a8.5,8.5,0,0,1-2.6.762,18.2,18.2,0,0,1-3.344.177,10.138,10.138,0,0,1-2.284-.435,13.818,13.818,0,0,1-2.123-.817c-.244-.214-.69-.405-.994-.623s-.724-.557-1.05-.831a6.121,6.121,0,0,1-1.452-1.99c-1.9-1.7-2.1-7.923-1.61-10.53a10.97,10.97,0,0,1,3.377-6.012c.773-.653,1.438-.866,1.755-1.3.724-.136,1.349-.562,2.134-.784a12.08,12.08,0,0,1,2.248-.467c.844,0,.886-.193,1.63-.153.527.028.842.121,1.574.157a10.82,10.82,0,0,1,2.742.623" transform="translate(-0.551 -0.473)" fill="url(#linear-gradient)"/>
    </clipPath>
  </defs>
  <g id="marisol-logo" transform="translate(0 0)">
    <g id="Grupo_80" data-name="Grupo 80" transform="translate(0 0)" clip-path="url(#clip-path)">
      <g id="Grupo_79" data-name="Grupo 79" transform="translate(-0.065 0.069)" clip-path="url(#clip-path-2)">
        <g id="Grupo_78" data-name="Grupo 78" clip-path="url(#clip-path-3)">
          <path id="Caminho_29" data-name="Caminho 29" d="M.551,59.6V.473H250.619V59.6Zm0,0" transform="translate(-0.551 -0.473)" fill="url(#linear-gradient)"/>
        </g>
      </g>
    </g>
  </g>
</svg>
