<svg id="vialaser-logo" xmlns="http://www.w3.org/2000/svg" width="201.969" height="47.953" viewBox="0 0 201.969 47.953">
  <path id="path11" d="M166.893,13.678v6.761h-3.155a8.68,8.68,0,0,0-3.691.8,9.964,9.964,0,0,0-5.054,5.47,10.832,10.832,0,0,0-.734,3.99v17.1h-6.306V30.7a17.775,17.775,0,0,1,1.23-6.665,17.1,17.1,0,0,1,3.393-5.38,16.284,16.284,0,0,1,5.049-3.647,14.406,14.406,0,0,1,6.1-1.328Zm-41.1,9.879a10.787,10.787,0,0,0-1.824,11.779l2.562-2.776,3.643-3.952q1.929-2.085,3.718-3.99t2.773-2.961a8.79,8.79,0,0,0-10.872,1.9M141.43,35.793l4.417,4.761-2.171,2.38a15.734,15.734,0,0,1-5.12,3.723,14.7,14.7,0,0,1-12.063,0,15.7,15.7,0,0,1-5.12-3.723,16.545,16.545,0,0,1-3.437-5.661,19.053,19.053,0,0,1-1.121-6.422,18.708,18.708,0,0,1,1.121-6.38,16.476,16.476,0,0,1,3.437-5.623,15.31,15.31,0,0,1,5.225-3.761,14.612,14.612,0,0,1,11.866,0,15.271,15.271,0,0,1,5.225,3.761L145.86,21.2,128.4,40.12a8.821,8.821,0,0,0,10.872-1.971ZM111.7,13.678v6.761H92.685a3,3,0,0,0-2.246.99,3.531,3.531,0,0,0-.914,2.433,3.584,3.584,0,0,0,.914,2.471,2.889,2.889,0,0,0,2.246,1.024h12.621a8.619,8.619,0,0,1,3.683.8A9.725,9.725,0,0,1,112,30.318a9.922,9.922,0,0,1,2.035,3.233,11.149,11.149,0,0,1,0,7.979A9.978,9.978,0,0,1,108.989,47a8.618,8.618,0,0,1-3.683.8H86.369V41.034h18.937a2.987,2.987,0,0,0,2.317-.985,3.527,3.527,0,0,0,.909-2.51,3.482,3.482,0,0,0-.91-2.433,3.017,3.017,0,0,0-2.316-.99H92.685A8.617,8.617,0,0,1,89,33.326a9.128,9.128,0,0,1-2.98-2.2,10.736,10.736,0,0,1-2-3.271,11.149,11.149,0,0,1,0-7.979,10.288,10.288,0,0,1,2-3.209A9.515,9.515,0,0,1,89,14.5a8.7,8.7,0,0,1,3.687-.8ZM75.286,41.034V30.7a10.723,10.723,0,0,0-.738-3.99,9.982,9.982,0,0,0-5.032-5.47,8.68,8.68,0,0,0-3.683-.8,8.941,8.941,0,0,0-3.718.8,9.87,9.87,0,0,0-5.1,5.47,10.723,10.723,0,0,0-.738,3.99,10.846,10.846,0,0,0,2.773,7.337,9.346,9.346,0,0,0,3.05,2.2,8.867,8.867,0,0,0,3.718.8Zm-9.47-27.356a14.318,14.318,0,0,1,6.152,1.328,16.539,16.539,0,0,1,8.35,9.046,17.776,17.776,0,0,1,1.226,6.665v17.1H65.816a14.364,14.364,0,0,1-6.1-1.324,16.644,16.644,0,0,1-8.455-9.16,18.534,18.534,0,0,1,0-13.259,17.177,17.177,0,0,1,3.4-5.4,16.3,16.3,0,0,1,5.054-3.647,14.365,14.365,0,0,1,6.1-1.328M41.544,0h6.245V47.8H41.544Z" transform="translate(35.076)" fill="#41393c"/>
  <path id="path13" d="M67.023,34.788V24.619a10.59,10.59,0,0,0-.725-3.928,9.762,9.762,0,0,0-4.97-5.385,8.508,8.508,0,0,0-3.621-.786,9.059,9.059,0,0,0-6.662,2.952,10.322,10.322,0,0,0-2,3.218,10.906,10.906,0,0,0,2.012,11.136,8.986,8.986,0,0,0,6.655,2.961ZM58.233,7.865a11.769,11.769,0,0,1,5.489,1.309,16.29,16.29,0,0,1,8.218,8.9,17.54,17.54,0,0,1,1.209,6.546V41.444H58.207a14.134,14.134,0,0,1-5.968-1.295A16.38,16.38,0,0,1,43.92,31.1a17.6,17.6,0,0,1,3.349-18.358,15.906,15.906,0,0,1,4.97-3.59,14.136,14.136,0,0,1,6-1.309m-23.845,0h5.55V41.425H34.4Zm-2.852-.138L15.724,40.635,0,7.718l6.056.057c.642,1.347,1.894,3.7,2.72,5.423s1.657,3.466,2.487,5.237,1.648,3.475,2.452,5.123,1.481,3.061,2.035,4.285c.69-1.428,1.481-3.1,2.382-4.97s1.784-3.728,2.637-5.57,1.679-3.556,2.417-5.123,1.679-3.656,2.1-4.456Z" transform="translate(0 6.508)" fill="#4da747"/>
</svg>
